# 3ds Max Wavefront OBJ Exporter v0.97b - (c)2007 guruware
# File Created: 25.03.2014 15:29:31

#
# object Box020
#

v  -221.3363 174.4720 447.2657
v  -221.3363 174.4720 533.7159
v  -362.6095 147.7914 533.7159
v  -362.6095 147.7914 447.2657
v  -221.5978 175.8570 447.2657
v  -362.8710 149.1764 447.2657
v  -362.8710 149.1765 533.7159
v  -221.5978 175.8570 533.7159
# 8 vertices

vn 0.1856 -0.9826 0.0000
vn -0.1856 0.9826 -0.0000
vn 0.0000 -0.0000 -1.0000
vn -0.9826 -0.1856 0.0000
vn -0.0000 0.0000 1.0000
vn 0.9826 0.1856 0.0000
# 6 vertex normals

vt 1.0000 0.0000 0.0000
vt 1.0000 1.0000 0.0000
vt 0.0000 1.0000 0.0000
vt 0.0000 0.0000 0.0000
# 4 texture coords

g Box020
s 2
f 1/1/1 2/2/1 3/3/1 
f 3/3/1 4/4/1 1/1/1 
s 4
f 5/4/2 6/1/2 7/2/2 
f 7/2/2 8/3/2 5/4/2 
s 8
f 1/4/3 4/1/3 6/2/3 
f 6/2/3 5/3/3 1/4/3 
s 16
f 4/4/4 3/1/4 7/2/4 
f 7/2/4 6/3/4 4/4/4 
s 32
f 3/4/5 2/1/5 8/2/5 
f 8/2/5 7/3/5 3/4/5 
s 64
f 2/4/6 1/1/6 5/2/6 
f 5/2/6 8/3/6 2/4/6 
# 12 faces

#
# object Cylinder031
#

v  -170.3811 186.2629 138.9509
v  -157.1815 191.0671 138.9509
v  -156.3344 186.2629 138.9509
v  -159.6207 195.2919 138.9509
v  -163.3577 198.4276 138.9509
v  -167.9419 200.0961 138.9509
v  -172.8202 200.0961 138.9509
v  -177.4044 198.4276 138.9509
v  -181.1414 195.2919 138.9509
v  -183.5806 191.0671 138.9509
v  -184.4277 186.2629 138.9509
v  -183.5806 181.4586 138.9509
v  -181.1414 177.2338 138.9509
v  -177.4044 174.0981 138.9509
v  -172.8203 172.4296 138.9509
v  -167.9419 172.4296 138.9509
v  -163.3577 174.0981 138.9509
v  -159.6207 177.2338 138.9509
v  -157.1815 181.4586 138.9509
v  -157.1815 191.0671 144.8481
v  -156.3344 186.2629 144.8481
v  -159.6207 195.2919 144.8481
v  -163.3577 198.4276 144.8481
v  -167.9419 200.0961 144.8481
v  -172.8202 200.0961 144.8481
v  -177.4044 198.4276 144.8481
v  -181.1414 195.2919 144.8481
v  -183.5806 191.0671 144.8481
v  -184.4277 186.2629 144.8481
v  -183.5806 181.4586 144.8481
v  -181.1414 177.2338 144.8481
v  -177.4044 174.0981 144.8481
v  -172.8203 172.4296 144.8481
v  -167.9419 172.4296 144.8481
v  -163.3577 174.0981 144.8481
v  -159.6207 177.2338 144.8481
v  -157.1815 181.4586 144.8481
v  -170.3811 186.2629 144.8481
# 38 vertices

vn 0.0000 0.0000 -1.0000
vn 1.0000 -0.0000 0.0000
vn 0.9397 0.3420 0.0000
vn 0.7660 0.6428 0.0000
vn 0.5000 0.8660 0.0000
vn 0.1736 0.9848 0.0000
vn -0.1736 0.9848 0.0000
vn -0.5000 0.8660 0.0000
vn -0.7660 0.6428 0.0000
vn -0.9397 0.3420 0.0000
vn -1.0000 0.0000 0.0000
vn -1.0000 -0.0000 0.0000
vn -0.9397 -0.3420 0.0000
vn -0.7660 -0.6428 0.0000
vn -0.5000 -0.8660 0.0000
vn -0.1736 -0.9848 0.0000
vn 0.1736 -0.9848 0.0000
vn 0.5000 -0.8660 0.0000
vn 0.7660 -0.6428 0.0000
vn 0.9397 -0.3420 0.0000
vn 0.0000 0.0000 1.0000
# 21 vertex normals

vt 0.5000 0.0000 0.0000
vt 0.8056 0.0000 1.0000
vt 0.7500 0.0000 1.0000
vt 0.8611 0.0000 1.0000
vt 0.9167 0.0000 1.0000
vt 0.9722 0.0000 1.0000
vt 0.0278 0.0000 1.0000
vt -0.0278 0.0000 1.0000
vt 0.0833 0.0000 1.0000
vt 0.1389 0.0000 1.0000
vt 0.1944 0.0000 1.0000
vt 0.2500 0.0000 1.0000
vt 0.3056 0.0000 1.0000
vt 0.3611 0.0000 1.0000
vt 0.4167 0.0000 1.0000
vt 0.4722 0.0000 1.0000
vt 0.5278 0.0000 1.0000
vt 0.5833 0.0000 1.0000
vt 0.6389 0.0000 1.0000
vt 0.6944 0.0000 1.0000
vt 0.8056 1.0000 1.0000
vt 0.7500 1.0000 1.0000
vt 0.8611 1.0000 1.0000
vt 0.9167 1.0000 1.0000
vt 0.9722 1.0000 1.0000
vt 0.0278 1.0000 1.0000
vt -0.0278 1.0000 1.0000
vt 0.0833 1.0000 1.0000
vt 0.1389 1.0000 1.0000
vt 0.1944 1.0000 1.0000
vt 0.2500 1.0000 1.0000
vt 0.3056 1.0000 1.0000
vt 0.3611 1.0000 1.0000
vt 0.4167 1.0000 1.0000
vt 0.4722 1.0000 1.0000
vt 0.5278 1.0000 1.0000
vt 0.5833 1.0000 1.0000
vt 0.6389 1.0000 1.0000
vt 0.6944 1.0000 1.0000
vt 0.5000 1.0000 0.0000
# 40 texture coords

g Cylinder031
s 1
f 9/5/7 10/6/7 11/7/7 
f 9/5/7 12/8/7 10/6/7 
f 9/5/7 13/9/7 12/8/7 
f 9/5/7 14/10/7 13/9/7 
f 9/5/7 15/11/7 14/12/7 
f 9/5/7 16/13/7 15/11/7 
f 9/5/7 17/14/7 16/13/7 
f 9/5/7 18/15/7 17/14/7 
f 9/5/7 19/16/7 18/15/7 
f 9/5/7 20/17/7 19/16/7 
f 9/5/7 21/18/7 20/17/7 
f 9/5/7 22/19/7 21/18/7 
f 9/5/7 23/20/7 22/19/7 
f 9/5/7 24/21/7 23/20/7 
f 9/5/7 25/22/7 24/21/7 
f 9/5/7 26/23/7 25/22/7 
f 9/5/7 27/24/7 26/23/7 
f 9/5/7 11/7/7 27/24/7 
s 8
f 11/7/8 28/25/9 29/26/8 
f 11/7/8 10/6/9 28/25/9 
f 10/6/9 30/27/10 28/25/9 
f 10/6/9 12/8/10 30/27/10 
f 12/8/10 31/28/11 30/27/10 
f 12/8/10 13/9/11 31/28/11 
f 13/9/11 32/29/12 31/28/11 
f 13/9/11 14/10/12 32/29/12 
f 14/12/12 33/30/13 32/31/12 
f 14/12/12 15/11/13 33/30/13 
f 15/11/13 34/32/14 33/30/13 
f 15/11/13 16/13/14 34/32/14 
f 16/13/14 35/33/15 34/32/14 
f 16/13/14 17/14/15 35/33/15 
f 17/14/15 36/34/16 35/33/15 
f 17/14/15 18/15/16 36/34/16 
f 18/15/16 37/35/17 36/34/16 
f 18/15/16 19/16/18 37/35/17 
f 19/16/18 38/36/19 37/35/17 
f 19/16/18 20/17/19 38/36/19 
f 20/17/19 39/37/20 38/36/19 
f 20/17/19 21/18/20 39/37/20 
f 21/18/20 40/38/21 39/37/20 
f 21/18/20 22/19/21 40/38/21 
f 22/19/21 41/39/22 40/38/21 
f 22/19/21 23/20/22 41/39/22 
f 23/20/22 42/40/23 41/39/22 
f 23/20/22 24/21/23 42/40/23 
f 24/21/23 43/41/24 42/40/23 
f 24/21/23 25/22/24 43/41/24 
f 25/22/24 44/42/25 43/41/24 
f 25/22/24 26/23/25 44/42/25 
f 26/23/25 45/43/26 44/42/25 
f 26/23/25 27/24/26 45/43/26 
f 27/24/26 29/26/8 45/43/26 
f 27/24/26 11/7/8 29/26/8 
s 1
f 46/44/27 29/26/27 28/25/27 
f 46/44/27 28/25/27 30/27/27 
f 46/44/27 30/27/27 31/28/27 
f 46/44/27 31/28/27 32/29/27 
f 46/44/27 32/31/27 33/30/27 
f 46/44/27 33/30/27 34/32/27 
f 46/44/27 34/32/27 35/33/27 
f 46/44/27 35/33/27 36/34/27 
f 46/44/27 36/34/27 37/35/27 
f 46/44/27 37/35/27 38/36/27 
f 46/44/27 38/36/27 39/37/27 
f 46/44/27 39/37/27 40/38/27 
f 46/44/27 40/38/27 41/39/27 
f 46/44/27 41/39/27 42/40/27 
f 46/44/27 42/40/27 43/41/27 
f 46/44/27 43/41/27 44/42/27 
f 46/44/27 44/42/27 45/43/27 
f 46/44/27 45/43/27 29/26/27 
# 72 faces

#
# object Cylinder032
#

v  -170.3811 186.2629 232.4454
v  -157.1815 191.0671 232.4454
v  -156.3344 186.2629 232.4454
v  -159.6207 195.2919 232.4454
v  -163.3577 198.4276 232.4454
v  -167.9419 200.0961 232.4454
v  -172.8202 200.0961 232.4454
v  -177.4044 198.4276 232.4454
v  -181.1414 195.2919 232.4454
v  -183.5806 191.0671 232.4454
v  -184.4277 186.2629 232.4454
v  -183.5806 181.4586 232.4454
v  -181.1414 177.2338 232.4454
v  -177.4044 174.0981 232.4454
v  -172.8203 172.4296 232.4454
v  -167.9419 172.4296 232.4454
v  -163.3577 174.0981 232.4454
v  -159.6207 177.2338 232.4454
v  -157.1815 181.4586 232.4454
v  -157.1815 191.0671 238.3426
v  -156.3344 186.2629 238.3426
v  -159.6207 195.2919 238.3426
v  -163.3577 198.4276 238.3426
v  -167.9419 200.0961 238.3426
v  -172.8202 200.0961 238.3426
v  -177.4044 198.4276 238.3426
v  -181.1414 195.2919 238.3426
v  -183.5806 191.0671 238.3426
v  -184.4277 186.2629 238.3426
v  -183.5806 181.4586 238.3426
v  -181.1414 177.2338 238.3426
v  -177.4044 174.0981 238.3426
v  -172.8203 172.4296 238.3426
v  -167.9419 172.4296 238.3426
v  -163.3577 174.0981 238.3426
v  -159.6207 177.2338 238.3426
v  -157.1815 181.4586 238.3426
v  -170.3811 186.2629 238.3426
# 38 vertices

vn 0.0000 0.0000 -1.0000
vn 1.0000 -0.0000 0.0000
vn 0.9397 0.3420 0.0000
vn 0.7660 0.6428 0.0000
vn 0.5000 0.8660 0.0000
vn 0.1736 0.9848 0.0000
vn -0.1736 0.9848 0.0000
vn -0.5000 0.8660 0.0000
vn -0.7660 0.6428 0.0000
vn -0.9397 0.3420 0.0000
vn -1.0000 0.0000 0.0000
vn -1.0000 -0.0000 0.0000
vn -0.9397 -0.3420 0.0000
vn -0.7660 -0.6428 0.0000
vn -0.5000 -0.8660 0.0000
vn -0.1736 -0.9848 0.0000
vn 0.1736 -0.9848 0.0000
vn 0.5000 -0.8660 0.0000
vn 0.7660 -0.6428 0.0000
vn 0.9397 -0.3420 0.0000
vn 0.0000 0.0000 1.0000
# 21 vertex normals

vt 0.5000 0.0000 0.0000
vt 0.8056 0.0000 1.0000
vt 0.7500 0.0000 1.0000
vt 0.8611 0.0000 1.0000
vt 0.9167 0.0000 1.0000
vt 0.9722 0.0000 1.0000
vt 0.0278 0.0000 1.0000
vt -0.0278 0.0000 1.0000
vt 0.0833 0.0000 1.0000
vt 0.1389 0.0000 1.0000
vt 0.1944 0.0000 1.0000
vt 0.2500 0.0000 1.0000
vt 0.3056 0.0000 1.0000
vt 0.3611 0.0000 1.0000
vt 0.4167 0.0000 1.0000
vt 0.4722 0.0000 1.0000
vt 0.5278 0.0000 1.0000
vt 0.5833 0.0000 1.0000
vt 0.6389 0.0000 1.0000
vt 0.6944 0.0000 1.0000
vt 0.8056 1.0000 1.0000
vt 0.7500 1.0000 1.0000
vt 0.8611 1.0000 1.0000
vt 0.9167 1.0000 1.0000
vt 0.9722 1.0000 1.0000
vt 0.0278 1.0000 1.0000
vt -0.0278 1.0000 1.0000
vt 0.0833 1.0000 1.0000
vt 0.1389 1.0000 1.0000
vt 0.1944 1.0000 1.0000
vt 0.2500 1.0000 1.0000
vt 0.3056 1.0000 1.0000
vt 0.3611 1.0000 1.0000
vt 0.4167 1.0000 1.0000
vt 0.4722 1.0000 1.0000
vt 0.5278 1.0000 1.0000
vt 0.5833 1.0000 1.0000
vt 0.6389 1.0000 1.0000
vt 0.6944 1.0000 1.0000
vt 0.5000 1.0000 0.0000
# 40 texture coords

g Cylinder032
s 1
f 47/45/28 48/46/28 49/47/28 
f 47/45/28 50/48/28 48/46/28 
f 47/45/28 51/49/28 50/48/28 
f 47/45/28 52/50/28 51/49/28 
f 47/45/28 53/51/28 52/52/28 
f 47/45/28 54/53/28 53/51/28 
f 47/45/28 55/54/28 54/53/28 
f 47/45/28 56/55/28 55/54/28 
f 47/45/28 57/56/28 56/55/28 
f 47/45/28 58/57/28 57/56/28 
f 47/45/28 59/58/28 58/57/28 
f 47/45/28 60/59/28 59/58/28 
f 47/45/28 61/60/28 60/59/28 
f 47/45/28 62/61/28 61/60/28 
f 47/45/28 63/62/28 62/61/28 
f 47/45/28 64/63/28 63/62/28 
f 47/45/28 65/64/28 64/63/28 
f 47/45/28 49/47/28 65/64/28 
s 8
f 49/47/29 66/65/30 67/66/29 
f 49/47/29 48/46/30 66/65/30 
f 48/46/30 68/67/31 66/65/30 
f 48/46/30 50/48/31 68/67/31 
f 50/48/31 69/68/32 68/67/31 
f 50/48/31 51/49/32 69/68/32 
f 51/49/32 70/69/33 69/68/32 
f 51/49/32 52/50/33 70/69/33 
f 52/52/33 71/70/34 70/71/33 
f 52/52/33 53/51/34 71/70/34 
f 53/51/34 72/72/35 71/70/34 
f 53/51/34 54/53/35 72/72/35 
f 54/53/35 73/73/36 72/72/35 
f 54/53/35 55/54/36 73/73/36 
f 55/54/36 74/74/37 73/73/36 
f 55/54/36 56/55/37 74/74/37 
f 56/55/37 75/75/38 74/74/37 
f 56/55/37 57/56/39 75/75/38 
f 57/56/39 76/76/40 75/75/38 
f 57/56/39 58/57/40 76/76/40 
f 58/57/40 77/77/41 76/76/40 
f 58/57/40 59/58/41 77/77/41 
f 59/58/41 78/78/42 77/77/41 
f 59/58/41 60/59/42 78/78/42 
f 60/59/42 79/79/43 78/78/42 
f 60/59/42 61/60/43 79/79/43 
f 61/60/43 80/80/44 79/79/43 
f 61/60/43 62/61/44 80/80/44 
f 62/61/44 81/81/45 80/80/44 
f 62/61/44 63/62/45 81/81/45 
f 63/62/45 82/82/46 81/81/45 
f 63/62/45 64/63/46 82/82/46 
f 64/63/46 83/83/47 82/82/46 
f 64/63/46 65/64/47 83/83/47 
f 65/64/47 67/66/29 83/83/47 
f 65/64/47 49/47/29 67/66/29 
s 1
f 84/84/48 67/66/48 66/65/48 
f 84/84/48 66/65/48 68/67/48 
f 84/84/48 68/67/48 69/68/48 
f 84/84/48 69/68/48 70/69/48 
f 84/84/48 70/71/48 71/70/48 
f 84/84/48 71/70/48 72/72/48 
f 84/84/48 72/72/48 73/73/48 
f 84/84/48 73/73/48 74/74/48 
f 84/84/48 74/74/48 75/75/48 
f 84/84/48 75/75/48 76/76/48 
f 84/84/48 76/76/48 77/77/48 
f 84/84/48 77/77/48 78/78/48 
f 84/84/48 78/78/48 79/79/48 
f 84/84/48 79/79/48 80/80/48 
f 84/84/48 80/80/48 81/81/48 
f 84/84/48 81/81/48 82/82/48 
f 84/84/48 82/82/48 83/83/48 
f 84/84/48 83/83/48 67/66/48 
# 72 faces

#
# object Cylinder033
#

v  -170.3811 186.2629 325.6421
v  -157.1815 191.0671 325.6421
v  -156.3344 186.2629 325.6421
v  -159.6207 195.2919 325.6421
v  -163.3577 198.4276 325.6421
v  -167.9419 200.0961 325.6421
v  -172.8202 200.0961 325.6421
v  -177.4044 198.4276 325.6421
v  -181.1414 195.2919 325.6421
v  -183.5806 191.0671 325.6421
v  -184.4277 186.2629 325.6421
v  -183.5806 181.4586 325.6421
v  -181.1414 177.2338 325.6421
v  -177.4044 174.0981 325.6421
v  -172.8203 172.4296 325.6421
v  -167.9419 172.4296 325.6421
v  -163.3577 174.0981 325.6421
v  -159.6207 177.2338 325.6421
v  -157.1815 181.4586 325.6421
v  -157.1815 191.0671 331.5393
v  -156.3344 186.2629 331.5393
v  -159.6207 195.2919 331.5393
v  -163.3577 198.4276 331.5393
v  -167.9419 200.0961 331.5393
v  -172.8202 200.0961 331.5393
v  -177.4044 198.4276 331.5393
v  -181.1414 195.2919 331.5393
v  -183.5806 191.0671 331.5393
v  -184.4277 186.2629 331.5393
v  -183.5806 181.4586 331.5393
v  -181.1414 177.2338 331.5393
v  -177.4044 174.0981 331.5393
v  -172.8203 172.4296 331.5393
v  -167.9419 172.4296 331.5393
v  -163.3577 174.0981 331.5393
v  -159.6207 177.2338 331.5393
v  -157.1815 181.4586 331.5393
v  -170.3811 186.2629 331.5393
# 38 vertices

vn 0.0000 0.0000 -1.0000
vn 1.0000 -0.0000 0.0000
vn 0.9397 0.3420 0.0000
vn 0.7660 0.6428 0.0000
vn 0.5000 0.8660 0.0000
vn 0.1736 0.9848 0.0000
vn -0.1736 0.9848 0.0000
vn -0.5000 0.8660 0.0000
vn -0.7660 0.6428 0.0000
vn -0.9397 0.3420 0.0000
vn -1.0000 0.0000 0.0000
vn -1.0000 -0.0000 0.0000
vn -0.9397 -0.3420 0.0000
vn -0.7660 -0.6428 0.0000
vn -0.5000 -0.8660 0.0000
vn -0.1736 -0.9848 0.0000
vn 0.1736 -0.9848 0.0000
vn 0.5000 -0.8660 0.0000
vn 0.7660 -0.6428 0.0000
vn 0.9397 -0.3420 0.0000
vn 0.0000 0.0000 1.0000
# 21 vertex normals

vt 0.5000 0.0000 0.0000
vt 0.8056 0.0000 1.0000
vt 0.7500 0.0000 1.0000
vt 0.8611 0.0000 1.0000
vt 0.9167 0.0000 1.0000
vt 0.9722 0.0000 1.0000
vt 0.0278 0.0000 1.0000
vt -0.0278 0.0000 1.0000
vt 0.0833 0.0000 1.0000
vt 0.1389 0.0000 1.0000
vt 0.1944 0.0000 1.0000
vt 0.2500 0.0000 1.0000
vt 0.3056 0.0000 1.0000
vt 0.3611 0.0000 1.0000
vt 0.4167 0.0000 1.0000
vt 0.4722 0.0000 1.0000
vt 0.5278 0.0000 1.0000
vt 0.5833 0.0000 1.0000
vt 0.6389 0.0000 1.0000
vt 0.6944 0.0000 1.0000
vt 0.8056 1.0000 1.0000
vt 0.7500 1.0000 1.0000
vt 0.8611 1.0000 1.0000
vt 0.9167 1.0000 1.0000
vt 0.9722 1.0000 1.0000
vt 0.0278 1.0000 1.0000
vt -0.0278 1.0000 1.0000
vt 0.0833 1.0000 1.0000
vt 0.1389 1.0000 1.0000
vt 0.1944 1.0000 1.0000
vt 0.2500 1.0000 1.0000
vt 0.3056 1.0000 1.0000
vt 0.3611 1.0000 1.0000
vt 0.4167 1.0000 1.0000
vt 0.4722 1.0000 1.0000
vt 0.5278 1.0000 1.0000
vt 0.5833 1.0000 1.0000
vt 0.6389 1.0000 1.0000
vt 0.6944 1.0000 1.0000
vt 0.5000 1.0000 0.0000
# 40 texture coords

g Cylinder033
s 1
f 85/85/49 86/86/49 87/87/49 
f 85/85/49 88/88/49 86/86/49 
f 85/85/49 89/89/49 88/88/49 
f 85/85/49 90/90/49 89/89/49 
f 85/85/49 91/91/49 90/92/49 
f 85/85/49 92/93/49 91/91/49 
f 85/85/49 93/94/49 92/93/49 
f 85/85/49 94/95/49 93/94/49 
f 85/85/49 95/96/49 94/95/49 
f 85/85/49 96/97/49 95/96/49 
f 85/85/49 97/98/49 96/97/49 
f 85/85/49 98/99/49 97/98/49 
f 85/85/49 99/100/49 98/99/49 
f 85/85/49 100/101/49 99/100/49 
f 85/85/49 101/102/49 100/101/49 
f 85/85/49 102/103/49 101/102/49 
f 85/85/49 103/104/49 102/103/49 
f 85/85/49 87/87/49 103/104/49 
s 8
f 87/87/50 104/105/51 105/106/50 
f 87/87/50 86/86/51 104/105/51 
f 86/86/51 106/107/52 104/105/51 
f 86/86/51 88/88/52 106/107/52 
f 88/88/52 107/108/53 106/107/52 
f 88/88/52 89/89/53 107/108/53 
f 89/89/53 108/109/54 107/108/53 
f 89/89/53 90/90/54 108/109/54 
f 90/92/54 109/110/55 108/111/54 
f 90/92/54 91/91/55 109/110/55 
f 91/91/55 110/112/56 109/110/55 
f 91/91/55 92/93/56 110/112/56 
f 92/93/56 111/113/57 110/112/56 
f 92/93/56 93/94/57 111/113/57 
f 93/94/57 112/114/58 111/113/57 
f 93/94/57 94/95/58 112/114/58 
f 94/95/58 113/115/59 112/114/58 
f 94/95/58 95/96/60 113/115/59 
f 95/96/60 114/116/61 113/115/59 
f 95/96/60 96/97/61 114/116/61 
f 96/97/61 115/117/62 114/116/61 
f 96/97/61 97/98/62 115/117/62 
f 97/98/62 116/118/63 115/117/62 
f 97/98/62 98/99/63 116/118/63 
f 98/99/63 117/119/64 116/118/63 
f 98/99/63 99/100/64 117/119/64 
f 99/100/64 118/120/65 117/119/64 
f 99/100/64 100/101/65 118/120/65 
f 100/101/65 119/121/66 118/120/65 
f 100/101/65 101/102/66 119/121/66 
f 101/102/66 120/122/67 119/121/66 
f 101/102/66 102/103/67 120/122/67 
f 102/103/67 121/123/68 120/122/67 
f 102/103/67 103/104/68 121/123/68 
f 103/104/68 105/106/50 121/123/68 
f 103/104/68 87/87/50 105/106/50 
s 1
f 122/124/69 105/106/69 104/105/69 
f 122/124/69 104/105/69 106/107/69 
f 122/124/69 106/107/69 107/108/69 
f 122/124/69 107/108/69 108/109/69 
f 122/124/69 108/111/69 109/110/69 
f 122/124/69 109/110/69 110/112/69 
f 122/124/69 110/112/69 111/113/69 
f 122/124/69 111/113/69 112/114/69 
f 122/124/69 112/114/69 113/115/69 
f 122/124/69 113/115/69 114/116/69 
f 122/124/69 114/116/69 115/117/69 
f 122/124/69 115/117/69 116/118/69 
f 122/124/69 116/118/69 117/119/69 
f 122/124/69 117/119/69 118/120/69 
f 122/124/69 118/120/69 119/121/69 
f 122/124/69 119/121/69 120/122/69 
f 122/124/69 120/122/69 121/123/69 
f 122/124/69 121/123/69 105/106/69 
# 72 faces

#
# object Box021
#

v  -194.3406 -68.0624 74.7270
v  -194.3406 -68.0624 85.0634
v  -64.7976 -198.0140 85.0634
v  -64.7976 -198.0140 74.7270
v  -197.6681 -71.3794 74.7270
v  -68.1251 -201.3310 74.7270
v  -68.1251 -201.3310 85.0634
v  -197.6681 -71.3794 85.0634
# 8 vertices

vn 0.7082 0.7060 0.0000
vn -0.7082 -0.7060 -0.0000
vn 0.0000 0.0000 -1.0000
vn 0.7060 -0.7082 0.0000
vn -0.0000 -0.0000 1.0000
vn -0.7060 0.7082 0.0000
# 6 vertex normals

vt 1.0000 0.0000 0.0000
vt 1.0000 1.0000 0.0000
vt 0.0000 1.0000 0.0000
vt 0.0000 0.0000 0.0000
# 4 texture coords

g Box021
s 2
f 123/125/70 124/126/70 125/127/70 
f 125/127/70 126/128/70 123/125/70 
s 4
f 127/128/71 128/125/71 129/126/71 
f 129/126/71 130/127/71 127/128/71 
s 8
f 123/128/72 126/125/72 128/126/72 
f 128/126/72 127/127/72 123/128/72 
s 16
f 126/128/73 125/125/73 129/126/73 
f 129/126/73 128/127/73 126/128/73 
s 32
f 125/128/74 124/125/74 130/126/74 
f 130/126/74 129/127/74 125/128/74 
s 64
f 124/128/75 123/125/75 127/126/75 
f 127/126/75 130/127/75 124/128/75 
# 12 faces

#
# object Box022
#

v  77.1701 202.8458 74.7270
v  77.1701 202.8458 85.0634
v  206.7131 72.8942 85.0634
v  206.7131 72.8942 74.7270
v  73.8426 199.5287 74.7270
v  203.3857 69.5771 74.7270
v  203.3857 69.5771 85.0634
v  73.8426 199.5287 85.0634
# 8 vertices

vn 0.7082 0.7060 0.0000
vn -0.7082 -0.7060 -0.0000
vn 0.0000 0.0000 -1.0000
vn 0.7060 -0.7082 0.0000
vn -0.0000 -0.0000 1.0000
vn -0.7060 0.7082 0.0000
# 6 vertex normals

vt 1.0000 0.0000 0.0000
vt 1.0000 1.0000 0.0000
vt 0.0000 1.0000 0.0000
vt 0.0000 0.0000 0.0000
# 4 texture coords

g Box022
s 2
f 131/129/76 132/130/76 133/131/76 
f 133/131/76 134/132/76 131/129/76 
s 4
f 135/132/77 136/129/77 137/130/77 
f 137/130/77 138/131/77 135/132/77 
s 8
f 131/132/78 134/129/78 136/130/78 
f 136/130/78 135/131/78 131/132/78 
s 16
f 134/132/79 133/129/79 137/130/79 
f 137/130/79 136/131/79 134/132/79 
s 32
f 133/132/80 132/129/80 138/130/80 
f 138/130/80 137/131/80 133/132/80 
s 64
f 132/132/81 131/129/81 135/130/81 
f 135/130/81 138/131/81 132/132/81 
# 12 faces

#
# object Box023
#

v  -197.6800 73.0867 74.7270
v  -197.6800 73.0867 85.0635
v  -67.9325 202.8342 85.0635
v  -67.9325 202.8342 74.7270
v  -194.3578 69.7645 74.7270
v  -64.6103 199.5119 74.7270
v  -64.6103 199.5119 85.0635
v  -194.3578 69.7645 85.0635
# 8 vertices

vn -0.7071 0.7071 0.0000
vn 0.7071 -0.7071 -0.0000
vn -0.0000 0.0000 -1.0000
vn 0.7071 0.7071 0.0000
vn 0.0000 -0.0000 1.0000
vn -0.7071 -0.7071 0.0000
# 6 vertex normals

vt 1.0000 0.0000 0.0000
vt 1.0000 1.0000 0.0000
vt 0.0000 1.0000 0.0000
vt 0.0000 0.0000 0.0000
# 4 texture coords

g Box023
s 2
f 139/133/82 140/134/82 141/135/82 
f 141/135/82 142/136/82 139/133/82 
s 4
f 143/136/83 144/133/83 145/134/83 
f 145/134/83 146/135/83 143/136/83 
s 8
f 139/136/84 142/133/84 144/134/84 
f 144/134/84 143/135/84 139/136/84 
s 16
f 142/136/85 141/133/85 145/134/85 
f 145/134/85 144/135/85 142/136/85 
s 32
f 141/136/86 140/133/86 146/134/86 
f 146/134/86 145/135/86 141/136/86 
s 64
f 140/136/87 139/133/87 143/134/87 
f 143/134/87 146/135/87 140/136/87 
# 12 faces

#
# object Box024
#

v  73.6553 -197.9972 74.7270
v  73.6553 -197.9972 85.0634
v  203.4028 -68.2497 85.0634
v  203.4028 -68.2497 74.7270
v  76.9775 -201.3194 74.7270
v  206.7250 -71.5719 74.7270
v  206.7250 -71.5719 85.0634
v  76.9775 -201.3194 85.0634
# 8 vertices

vn -0.7071 0.7071 0.0000
vn 0.7071 -0.7071 -0.0000
vn -0.0000 0.0000 -1.0000
vn 0.7071 0.7071 0.0000
vn 0.0000 -0.0000 1.0000
vn -0.7071 -0.7071 0.0000
# 6 vertex normals

vt 1.0000 0.0000 0.0000
vt 1.0000 1.0000 0.0000
vt 0.0000 1.0000 0.0000
vt 0.0000 0.0000 0.0000
# 4 texture coords

g Box024
s 2
f 147/137/88 148/138/88 149/139/88 
f 149/139/88 150/140/88 147/137/88 
s 4
f 151/140/89 152/137/89 153/138/89 
f 153/138/89 154/139/89 151/140/89 
s 8
f 147/140/90 150/137/90 152/138/90 
f 152/138/90 151/139/90 147/140/90 
s 16
f 150/140/91 149/137/91 153/138/91 
f 153/138/91 152/139/91 150/140/91 
s 32
f 149/140/92 148/137/92 154/138/92 
f 154/138/92 153/139/92 149/140/92 
s 64
f 148/140/93 147/137/93 151/138/93 
f 151/138/93 154/139/93 148/140/93 
# 12 faces

