# 3ds Max Wavefront OBJ Exporter v0.97b - (c)2007 guruware
# File Created: 10.04.2014 10:01:05

#
# object Cone013
#

v  0.3840 -0.2801 -152.1771
v  74.9493 26.8594 -152.1771
v  79.7347 -0.2801 -152.1771
v  61.1702 50.7256 -152.1771
v  40.0593 68.4396 -152.1771
v  14.1631 77.8651 -152.1771
v  -13.3952 77.8651 -152.1771
v  -39.2914 68.4396 -152.1771
v  -60.4023 50.7256 -152.1771
v  -74.1814 26.8594 -152.1771
v  -78.9668 -0.2801 -152.1771
v  -74.1814 -27.4197 -152.1771
v  -60.4023 -51.2858 -152.1771
v  -39.2915 -68.9999 -152.1771
v  -13.3952 -78.4254 -152.1771
v  14.1630 -78.4254 -152.1771
v  40.0593 -69.0000 -152.1771
v  61.1702 -51.2859 -152.1771
v  74.9493 -27.4198 -152.1771
v  12.7343 4.2150 190.9176
v  13.5269 -0.2801 190.9176
v  10.4520 8.1679 190.9176
v  6.9554 11.1019 190.9176
v  2.6662 12.6631 190.9176
v  -1.8983 12.6631 190.9176
v  -6.1875 11.1019 190.9176
v  -9.6841 8.1679 190.9176
v  -11.9663 4.2150 190.9176
v  -12.7590 -0.2801 190.9176
v  -11.9663 -4.7753 190.9176
v  -9.6841 -8.7282 190.9176
v  -6.1875 -11.6622 190.9176
v  -1.8983 -13.2234 190.9176
v  2.6662 -13.2234 190.9176
v  6.9554 -11.6622 190.9176
v  10.4520 -8.7283 190.9176
v  12.7342 -4.7753 190.9176
v  0.3840 -0.2801 190.9176
# 38 vertices

vn 0.0000 0.0000 -1.0000
vn 0.9819 0.0000 0.1895
vn 0.9227 0.3358 0.1895
vn 0.9819 -0.0000 0.1895
vn 0.7522 0.6311 0.1895
vn 0.4909 0.8503 0.1895
vn 0.1705 0.9670 0.1895
vn -0.1705 0.9670 0.1895
vn -0.4909 0.8503 0.1895
vn -0.7522 0.6311 0.1895
vn -0.9227 0.3358 0.1895
vn -0.9819 0.0000 0.1895
vn -0.9227 -0.3358 0.1895
vn -0.7522 -0.6311 0.1895
vn -0.4909 -0.8503 0.1895
vn -0.1705 -0.9670 0.1895
vn 0.1705 -0.9670 0.1895
vn 0.4909 -0.8503 0.1895
vn 0.7522 -0.6311 0.1895
vn 0.9227 -0.3358 0.1895
vn 0.0000 0.0000 1.0000
# 21 vertex normals

vt 0.5000 0.0000 0.0000
vt 0.8056 0.0000 1.0000
vt 0.7500 0.0000 1.0000
vt 0.8611 0.0000 1.0000
vt 0.9167 0.0000 1.0000
vt 0.9722 0.0000 1.0000
vt 0.0278 0.0000 1.0000
vt -0.0278 0.0000 1.0000
vt 0.0833 0.0000 1.0000
vt 0.1389 0.0000 1.0000
vt 0.1944 0.0000 1.0000
vt 0.2500 0.0000 1.0000
vt 0.3056 0.0000 1.0000
vt 0.3611 0.0000 1.0000
vt 0.4167 0.0000 1.0000
vt 0.4722 0.0000 1.0000
vt 0.5278 0.0000 1.0000
vt 0.5833 0.0000 1.0000
vt 0.6389 0.0000 1.0000
vt 0.6944 0.0000 1.0000
vt 0.8056 1.0000 0.1656
vt 0.7500 1.0000 0.1656
vt 0.8611 1.0000 0.1656
vt 0.9167 1.0000 0.1656
vt 0.9722 1.0000 0.1656
vt 0.0278 1.0000 0.1656
vt -0.0278 1.0000 0.1656
vt 0.0833 1.0000 0.1656
vt 0.1389 1.0000 0.1656
vt 0.1944 1.0000 0.1656
vt 0.2500 1.0000 0.1656
vt 0.3056 1.0000 0.1656
vt 0.3611 1.0000 0.1656
vt 0.4167 1.0000 0.1656
vt 0.4722 1.0000 0.1656
vt 0.5278 1.0000 0.1656
vt 0.5833 1.0000 0.1656
vt 0.6389 1.0000 0.1656
vt 0.6944 1.0000 0.1656
vt 0.5000 1.0000 0.0000
# 40 texture coords

g Cone013
s 1
f 1/1/1 2/2/1 3/3/1 
f 1/1/1 4/4/1 2/2/1 
f 1/1/1 5/5/1 4/4/1 
f 1/1/1 6/6/1 5/5/1 
f 1/1/1 7/7/1 6/8/1 
f 1/1/1 8/9/1 7/7/1 
f 1/1/1 9/10/1 8/9/1 
f 1/1/1 10/11/1 9/10/1 
f 1/1/1 11/12/1 10/11/1 
f 1/1/1 12/13/1 11/12/1 
f 1/1/1 13/14/1 12/13/1 
f 1/1/1 14/15/1 13/14/1 
f 1/1/1 15/16/1 14/15/1 
f 1/1/1 16/17/1 15/16/1 
f 1/1/1 17/18/1 16/17/1 
f 1/1/1 18/19/1 17/18/1 
f 1/1/1 19/20/1 18/19/1 
f 1/1/1 3/3/1 19/20/1 
s 8
f 3/3/2 20/21/3 21/22/4 
f 3/3/2 2/2/3 20/21/3 
f 2/2/3 22/23/5 20/21/3 
f 2/2/3 4/4/5 22/23/5 
f 4/4/5 23/24/6 22/23/5 
f 4/4/5 5/5/6 23/24/6 
f 5/5/6 24/25/7 23/24/6 
f 5/5/6 6/6/7 24/25/7 
f 6/8/7 25/26/8 24/27/7 
f 6/8/7 7/7/8 25/26/8 
f 7/7/8 26/28/9 25/26/8 
f 7/7/8 8/9/9 26/28/9 
f 8/9/9 27/29/10 26/28/9 
f 8/9/9 9/10/10 27/29/10 
f 9/10/10 28/30/11 27/29/10 
f 9/10/10 10/11/11 28/30/11 
f 10/11/11 29/31/12 28/30/11 
f 10/11/11 11/12/12 29/31/12 
f 11/12/12 30/32/13 29/31/12 
f 11/12/12 12/13/13 30/32/13 
f 12/13/13 31/33/14 30/32/13 
f 12/13/13 13/14/14 31/33/14 
f 13/14/14 32/34/15 31/33/14 
f 13/14/14 14/15/15 32/34/15 
f 14/15/15 33/35/16 32/34/15 
f 14/15/15 15/16/16 33/35/16 
f 15/16/16 34/36/17 33/35/16 
f 15/16/16 16/17/17 34/36/17 
f 16/17/17 35/37/18 34/36/17 
f 16/17/17 17/18/18 35/37/18 
f 17/18/18 36/38/19 35/37/18 
f 17/18/18 18/19/19 36/38/19 
f 18/19/19 37/39/20 36/38/19 
f 18/19/19 19/20/20 37/39/20 
f 19/20/20 21/22/4 37/39/20 
f 19/20/20 3/3/2 21/22/4 
s 1
f 38/40/21 21/22/21 20/21/21 
f 38/40/21 20/21/21 22/23/21 
f 38/40/21 22/23/21 23/24/21 
f 38/40/21 23/24/21 24/25/21 
f 38/40/21 24/27/21 25/26/21 
f 38/40/21 25/26/21 26/28/21 
f 38/40/21 26/28/21 27/29/21 
f 38/40/21 27/29/21 28/30/21 
f 38/40/21 28/30/21 29/31/21 
f 38/40/21 29/31/21 30/32/21 
f 38/40/21 30/32/21 31/33/21 
f 38/40/21 31/33/21 32/34/21 
f 38/40/21 32/34/21 33/35/21 
f 38/40/21 33/35/21 34/36/21 
f 38/40/21 34/36/21 35/37/21 
f 38/40/21 35/37/21 36/38/21 
f 38/40/21 36/38/21 37/39/21 
f 38/40/21 37/39/21 21/22/21 
# 72 faces

