# 3ds Max Wavefront OBJ Exporter v0.97b - (c)2007 guruware
# File Created: 10.04.2014 10:43:56

#
# object Box062
#

v  -16.0000 -16.0000 0.0000
v  -16.0000 16.0000 0.0000
v  16.0000 16.0000 0.0000
v  16.0000 -16.0000 0.0000
v  -16.0000 -16.0000 32.0000
v  16.0000 -16.0000 32.0000
v  16.0000 16.0000 32.0000
v  -16.0000 16.0000 32.0000
# 8 vertices

vn 0.0000 0.0000 -1.0000
vn 0.0000 0.0000 1.0000
vn 0.0000 -1.0000 0.0000
vn 1.0000 0.0000 0.0000
vn 0.0000 1.0000 0.0000
vn -1.0000 0.0000 0.0000
# 6 vertex normals

vt 0.6521 0.3454 0.0000
vt 0.6521 0.6512 0.0000
vt 0.3462 0.6512 0.0000
vt 0.3462 0.3454 0.0000
vt 0.0254 0.6672 0.0000
vt 0.3312 0.6672 0.0000
vt 0.3312 0.9731 0.0000
vt 0.0254 0.9731 0.0000
vt 0.6685 0.0238 0.0000
vt 0.9744 0.0238 0.0000
vt 0.9744 0.3297 0.0000
vt 0.6685 0.3297 0.0000
vt 0.3473 0.0237 0.0000
vt 0.6532 0.0237 0.0000
vt 0.6532 0.3296 0.0000
vt 0.3473 0.3296 0.0000
vt 0.0254 0.3459 0.0000
vt 0.3312 0.3459 0.0000
vt 0.3312 0.6517 0.0000
vt 0.0254 0.6517 0.0000
vt 0.0257 0.0242 0.0000
vt 0.3316 0.0242 0.0000
vt 0.3316 0.3300 0.0000
vt 0.0257 0.3300 0.0000
# 24 texture coords

g Box062
s 2
f 1/1/1 2/2/1 3/3/1 
f 3/3/1 4/4/1 1/1/1 
s 4
f 5/5/2 6/6/2 7/7/2 
f 7/7/2 8/8/2 5/5/2 
s 8
f 1/9/3 4/10/3 6/11/3 
f 6/11/3 5/12/3 1/9/3 
s 16
f 4/13/4 3/14/4 7/15/4 
f 7/15/4 6/16/4 4/13/4 
s 32
f 3/17/5 2/18/5 8/19/5 
f 8/19/5 7/20/5 3/17/5 
s 64
f 2/21/6 1/22/6 5/23/6 
f 5/23/6 8/24/6 2/21/6 
# 12 faces

